<?xml version="1.0" encoding="utf-8" standalone="no"?>
<!DOCTYPE svg PUBLIC "-//W3C//DTD SVG 1.1//EN"
  "http://www.w3.org/Graphics/SVG/1.1/DTD/svg11.dtd">
<svg xmlns:xlink="http://www.w3.org/1999/xlink" width="710.820938pt" height="355.671562pt" viewBox="0 0 710.820938 355.671562" xmlns="http://www.w3.org/2000/svg" version="1.1">
 <metadata>
  <rdf:RDF xmlns:dc="http://purl.org/dc/elements/1.1/" xmlns:cc="http://creativecommons.org/ns#" xmlns:rdf="http://www.w3.org/1999/02/22-rdf-syntax-ns#">
   <cc:Work>
    <dc:type rdf:resource="http://purl.org/dc/dcmitype/StillImage"/>
    <dc:date>2024-07-16T12:38:10.798355</dc:date>
    <dc:format>image/svg+xml</dc:format>
    <dc:creator>
     <cc:Agent>
      <dc:title>Matplotlib v3.8.2, https://matplotlib.org/</dc:title>
     </cc:Agent>
    </dc:creator>
   </cc:Work>
  </rdf:RDF>
 </metadata>
 <defs>
  <style type="text/css">*{stroke-linejoin: round; stroke-linecap: butt}</style>
 </defs>
 <g id="figure_1">
  <g id="patch_1">
   <path d="M 0 355.671562 
L 710.820938 355.671562 
L 710.820938 0 
L 0 0 
z
" style="fill: #ffffff"/>
  </g>
  <g id="axes_1">
   <g id="patch_2">
    <path d="M 53.200938 317.96 
L 703.620937 317.96 
L 703.620937 36.72 
L 53.200938 36.72 
z
" style="fill: #ffffff"/>
   </g>
   <g id="patch_3">
    <path d="M 82.765483 192.612877 
L 94.957048 192.612877 
L 94.957048 49.503636 
L 82.765483 49.503636 
z
" clip-path="url(#pa1f1de6236)" style="fill: #ff0000"/>
   </g>
   <g id="patch_4">
    <path d="M 143.723309 192.612877 
L 155.914874 192.612877 
L 155.914874 204.03288 
L 143.723309 204.03288 
z
" clip-path="url(#pa1f1de6236)" style="fill: #ff0000"/>
   </g>
   <g id="patch_5">
    <path d="M 204.681134 192.612877 
L 216.872699 192.612877 
L 216.872699 305.176364 
L 204.681134 305.176364 
z
" clip-path="url(#pa1f1de6236)" style="fill: #ff0000"/>
   </g>
   <g id="patch_6">
    <path d="M 265.63896 192.612877 
L 277.830525 192.612877 
L 277.830525 152.587146 
L 265.63896 152.587146 
z
" clip-path="url(#pa1f1de6236)" style="fill: #ff0000"/>
   </g>
   <g id="patch_7">
    <path d="M 326.596786 192.612877 
L 338.788351 192.612877 
L 338.788351 221.745779 
L 326.596786 221.745779 
z
" clip-path="url(#pa1f1de6236)" style="fill: #ff0000"/>
   </g>
   <g id="patch_8">
    <path d="M 387.554611 192.612877 
L 399.746176 192.612877 
L 399.746176 192.612877 
L 387.554611 192.612877 
z
" clip-path="url(#pa1f1de6236)" style="fill: #ff0000"/>
   </g>
   <g id="patch_9">
    <path d="M 448.512437 192.612877 
L 460.704002 192.612877 
L 460.704002 187.264458 
L 448.512437 187.264458 
z
" clip-path="url(#pa1f1de6236)" style="fill: #ff0000"/>
   </g>
   <g id="patch_10">
    <path d="M 509.470263 192.612877 
L 521.661828 192.612877 
L 521.661828 186.79979 
L 509.470263 186.79979 
z
" clip-path="url(#pa1f1de6236)" style="fill: #ff0000"/>
   </g>
   <g id="patch_11">
    <path d="M 570.428088 192.612877 
L 582.619654 192.612877 
L 582.619654 191.051977 
L 570.428088 191.051977 
z
" clip-path="url(#pa1f1de6236)" style="fill: #ff0000"/>
   </g>
   <g id="patch_12">
    <path d="M 631.385914 192.612877 
L 643.577479 192.612877 
L 643.577479 195.64093 
L 631.385914 195.64093 
z
" clip-path="url(#pa1f1de6236)" style="fill: #ff0000"/>
   </g>
   <g id="patch_13">
    <path d="M 98.004939 192.612877 
L 110.196505 192.612877 
L 110.196505 188.339817 
L 98.004939 188.339817 
z
" clip-path="url(#pa1f1de6236)" style="fill: #0000ff"/>
   </g>
   <g id="patch_14">
    <path d="M 158.962765 192.612877 
L 171.15433 192.612877 
L 171.15433 226.87934 
L 158.962765 226.87934 
z
" clip-path="url(#pa1f1de6236)" style="fill: #0000ff"/>
   </g>
   <g id="patch_15">
    <path d="M 219.920591 192.612877 
L 232.112156 192.612877 
L 232.112156 190.944063 
L 219.920591 190.944063 
z
" clip-path="url(#pa1f1de6236)" style="fill: #0000ff"/>
   </g>
   <g id="patch_16">
    <path d="M 280.878416 192.612877 
L 293.069982 192.612877 
L 293.069982 193.007806 
L 280.878416 193.007806 
z
" clip-path="url(#pa1f1de6236)" style="fill: #0000ff"/>
   </g>
   <g id="patch_17">
    <path d="M 341.836242 192.612877 
L 354.027807 192.612877 
L 354.027807 191.869638 
L 341.836242 191.869638 
z
" clip-path="url(#pa1f1de6236)" style="fill: #0000ff"/>
   </g>
   <g id="patch_18">
    <path d="M 402.794068 192.612877 
L 414.985633 192.612877 
L 414.985633 192.754705 
L 402.794068 192.754705 
z
" clip-path="url(#pa1f1de6236)" style="fill: #0000ff"/>
   </g>
   <g id="patch_19">
    <path d="M 463.751893 192.612877 
L 475.943459 192.612877 
L 475.943459 192.536718 
L 463.751893 192.536718 
z
" clip-path="url(#pa1f1de6236)" style="fill: #0000ff"/>
   </g>
   <g id="patch_20">
    <path d="M 524.709719 192.612877 
L 536.901284 192.612877 
L 536.901284 192.07205 
L 524.709719 192.07205 
z
" clip-path="url(#pa1f1de6236)" style="fill: #0000ff"/>
   </g>
   <g id="patch_21">
    <path d="M 585.667545 192.612877 
L 597.85911 192.612877 
L 597.85911 192.809397 
L 585.667545 192.809397 
z
" clip-path="url(#pa1f1de6236)" style="fill: #0000ff"/>
   </g>
   <g id="patch_22">
    <path d="M 646.62537 192.612877 
L 658.816936 192.612877 
L 658.816936 192.126089 
L 646.62537 192.126089 
z
" clip-path="url(#pa1f1de6236)" style="fill: #0000ff"/>
   </g>
   <g id="patch_23">
    <path d="M 113.244396 192.612877 
L 125.435961 192.612877 
L 125.435961 186.582397 
L 113.244396 186.582397 
z
" clip-path="url(#pa1f1de6236)" style="fill: #008000"/>
   </g>
   <g id="patch_24">
    <path d="M 174.202221 192.612877 
L 186.393787 192.612877 
L 186.393787 191.73094 
L 174.202221 191.73094 
z
" clip-path="url(#pa1f1de6236)" style="fill: #008000"/>
   </g>
   <g id="patch_25">
    <path d="M 235.160047 192.612877 
L 247.351612 192.612877 
L 247.351612 190.944063 
L 235.160047 190.944063 
z
" clip-path="url(#pa1f1de6236)" style="fill: #008000"/>
   </g>
   <g id="patch_26">
    <path d="M 296.117873 192.612877 
L 308.309438 192.612877 
L 308.309438 191.250386 
L 296.117873 191.250386 
z
" clip-path="url(#pa1f1de6236)" style="fill: #008000"/>
   </g>
   <g id="patch_27">
    <path d="M 357.075699 192.612877 
L 369.267264 192.612877 
L 369.267264 209.443839 
L 357.075699 209.443839 
z
" clip-path="url(#pa1f1de6236)" style="fill: #008000"/>
   </g>
   <g id="patch_28">
    <path d="M 418.033524 192.612877 
L 430.225089 192.612877 
L 430.225089 190.997285 
L 418.033524 190.997285 
z
" clip-path="url(#pa1f1de6236)" style="fill: #008000"/>
   </g>
   <g id="patch_29">
    <path d="M 478.99135 192.612877 
L 491.182915 192.612877 
L 491.182915 192.536718 
L 478.99135 192.536718 
z
" clip-path="url(#pa1f1de6236)" style="fill: #008000"/>
   </g>
   <g id="patch_30">
    <path d="M 539.949176 192.612877 
L 552.140741 192.612877 
L 552.140741 192.07205 
L 539.949176 192.07205 
z
" clip-path="url(#pa1f1de6236)" style="fill: #008000"/>
   </g>
   <g id="patch_31">
    <path d="M 600.907001 192.612877 
L 613.098566 192.612877 
L 613.098566 191.051977 
L 600.907001 191.051977 
z
" clip-path="url(#pa1f1de6236)" style="fill: #008000"/>
   </g>
   <g id="patch_32">
    <path d="M 661.864827 192.612877 
L 674.056392 192.612877 
L 674.056392 192.126089 
L 661.864827 192.126089 
z
" clip-path="url(#pa1f1de6236)" style="fill: #008000"/>
   </g>
   <g id="matplotlib.axis_1">
    <g id="xtick_1">
     <g id="line2d_1">
      <path d="M 104.100722 317.96 
L 104.100722 36.72 
" clip-path="url(#pa1f1de6236)" style="fill: none; stroke: #000000; stroke-opacity: 0.11; stroke-width: 0.6; stroke-linecap: square"/>
     </g>
     <g id="line2d_2">
      <defs>
       <path id="ma71c20d174" d="M 0 0 
L 0 4 
" style="stroke: #000000; stroke-width: 0.6"/>
      </defs>
      <g>
       <use xlink:href="#ma71c20d174" x="104.100722" y="317.96" style="stroke: #000000; stroke-width: 0.6"/>
      </g>
     </g>
     <g id="text_1">
      <!-- Conservatives -->
      <g transform="translate(69.254784 331.833594) scale(0.11 -0.11)">
       <defs>
        <path id="ArialMT-43" d="M 3763 1606 
L 4369 1453 
Q 4178 706 3683 314 
Q 3188 -78 2472 -78 
Q 1731 -78 1267 223 
Q 803 525 561 1097 
Q 319 1669 319 2325 
Q 319 3041 592 3573 
Q 866 4106 1370 4382 
Q 1875 4659 2481 4659 
Q 3169 4659 3637 4309 
Q 4106 3959 4291 3325 
L 3694 3184 
Q 3534 3684 3231 3912 
Q 2928 4141 2469 4141 
Q 1941 4141 1586 3887 
Q 1231 3634 1087 3207 
Q 944 2781 944 2328 
Q 944 1744 1114 1308 
Q 1284 872 1643 656 
Q 2003 441 2422 441 
Q 2931 441 3284 734 
Q 3638 1028 3763 1606 
z
" transform="scale(0.015625)"/>
        <path id="ArialMT-6f" d="M 213 1659 
Q 213 2581 725 3025 
Q 1153 3394 1769 3394 
Q 2453 3394 2887 2945 
Q 3322 2497 3322 1706 
Q 3322 1066 3130 698 
Q 2938 331 2570 128 
Q 2203 -75 1769 -75 
Q 1072 -75 642 372 
Q 213 819 213 1659 
z
M 791 1659 
Q 791 1022 1069 705 
Q 1347 388 1769 388 
Q 2188 388 2466 706 
Q 2744 1025 2744 1678 
Q 2744 2294 2464 2611 
Q 2184 2928 1769 2928 
Q 1347 2928 1069 2612 
Q 791 2297 791 1659 
z
" transform="scale(0.015625)"/>
        <path id="ArialMT-6e" d="M 422 0 
L 422 3319 
L 928 3319 
L 928 2847 
Q 1294 3394 1984 3394 
Q 2284 3394 2536 3286 
Q 2788 3178 2913 3003 
Q 3038 2828 3088 2588 
Q 3119 2431 3119 2041 
L 3119 0 
L 2556 0 
L 2556 2019 
Q 2556 2363 2490 2533 
Q 2425 2703 2258 2804 
Q 2091 2906 1866 2906 
Q 1506 2906 1245 2678 
Q 984 2450 984 1813 
L 984 0 
L 422 0 
z
" transform="scale(0.015625)"/>
        <path id="ArialMT-73" d="M 197 991 
L 753 1078 
Q 800 744 1014 566 
Q 1228 388 1613 388 
Q 2000 388 2187 545 
Q 2375 703 2375 916 
Q 2375 1106 2209 1216 
Q 2094 1291 1634 1406 
Q 1016 1563 777 1677 
Q 538 1791 414 1992 
Q 291 2194 291 2438 
Q 291 2659 392 2848 
Q 494 3038 669 3163 
Q 800 3259 1026 3326 
Q 1253 3394 1513 3394 
Q 1903 3394 2198 3281 
Q 2494 3169 2634 2976 
Q 2775 2784 2828 2463 
L 2278 2388 
Q 2241 2644 2061 2787 
Q 1881 2931 1553 2931 
Q 1166 2931 1000 2803 
Q 834 2675 834 2503 
Q 834 2394 903 2306 
Q 972 2216 1119 2156 
Q 1203 2125 1616 2013 
Q 2213 1853 2448 1751 
Q 2684 1650 2818 1456 
Q 2953 1263 2953 975 
Q 2953 694 2789 445 
Q 2625 197 2315 61 
Q 2006 -75 1616 -75 
Q 969 -75 630 194 
Q 291 463 197 991 
z
" transform="scale(0.015625)"/>
        <path id="ArialMT-65" d="M 2694 1069 
L 3275 997 
Q 3138 488 2766 206 
Q 2394 -75 1816 -75 
Q 1088 -75 661 373 
Q 234 822 234 1631 
Q 234 2469 665 2931 
Q 1097 3394 1784 3394 
Q 2450 3394 2872 2941 
Q 3294 2488 3294 1666 
Q 3294 1616 3291 1516 
L 816 1516 
Q 847 969 1125 678 
Q 1403 388 1819 388 
Q 2128 388 2347 550 
Q 2566 713 2694 1069 
z
M 847 1978 
L 2700 1978 
Q 2663 2397 2488 2606 
Q 2219 2931 1791 2931 
Q 1403 2931 1139 2672 
Q 875 2413 847 1978 
z
" transform="scale(0.015625)"/>
        <path id="ArialMT-72" d="M 416 0 
L 416 3319 
L 922 3319 
L 922 2816 
Q 1116 3169 1280 3281 
Q 1444 3394 1641 3394 
Q 1925 3394 2219 3213 
L 2025 2691 
Q 1819 2813 1613 2813 
Q 1428 2813 1281 2702 
Q 1134 2591 1072 2394 
Q 978 2094 978 1738 
L 978 0 
L 416 0 
z
" transform="scale(0.015625)"/>
        <path id="ArialMT-76" d="M 1344 0 
L 81 3319 
L 675 3319 
L 1388 1331 
Q 1503 1009 1600 663 
Q 1675 925 1809 1294 
L 2547 3319 
L 3125 3319 
L 1869 0 
L 1344 0 
z
" transform="scale(0.015625)"/>
        <path id="ArialMT-61" d="M 2588 409 
Q 2275 144 1986 34 
Q 1697 -75 1366 -75 
Q 819 -75 525 192 
Q 231 459 231 875 
Q 231 1119 342 1320 
Q 453 1522 633 1644 
Q 813 1766 1038 1828 
Q 1203 1872 1538 1913 
Q 2219 1994 2541 2106 
Q 2544 2222 2544 2253 
Q 2544 2597 2384 2738 
Q 2169 2928 1744 2928 
Q 1347 2928 1158 2789 
Q 969 2650 878 2297 
L 328 2372 
Q 403 2725 575 2942 
Q 747 3159 1072 3276 
Q 1397 3394 1825 3394 
Q 2250 3394 2515 3294 
Q 2781 3194 2906 3042 
Q 3031 2891 3081 2659 
Q 3109 2516 3109 2141 
L 3109 1391 
Q 3109 606 3145 398 
Q 3181 191 3288 0 
L 2700 0 
Q 2613 175 2588 409 
z
M 2541 1666 
Q 2234 1541 1622 1453 
Q 1275 1403 1131 1340 
Q 988 1278 909 1158 
Q 831 1038 831 891 
Q 831 666 1001 516 
Q 1172 366 1500 366 
Q 1825 366 2078 508 
Q 2331 650 2450 897 
Q 2541 1088 2541 1459 
L 2541 1666 
z
" transform="scale(0.015625)"/>
        <path id="ArialMT-74" d="M 1650 503 
L 1731 6 
Q 1494 -44 1306 -44 
Q 1000 -44 831 53 
Q 663 150 594 308 
Q 525 466 525 972 
L 525 2881 
L 113 2881 
L 113 3319 
L 525 3319 
L 525 4141 
L 1084 4478 
L 1084 3319 
L 1650 3319 
L 1650 2881 
L 1084 2881 
L 1084 941 
Q 1084 700 1114 631 
Q 1144 563 1211 522 
Q 1278 481 1403 481 
Q 1497 481 1650 503 
z
" transform="scale(0.015625)"/>
        <path id="ArialMT-69" d="M 425 3934 
L 425 4581 
L 988 4581 
L 988 3934 
L 425 3934 
z
M 425 0 
L 425 3319 
L 988 3319 
L 988 0 
L 425 0 
z
" transform="scale(0.015625)"/>
       </defs>
       <use xlink:href="#ArialMT-43"/>
       <use xlink:href="#ArialMT-6f" x="72.216797"/>
       <use xlink:href="#ArialMT-6e" x="127.832031"/>
       <use xlink:href="#ArialMT-73" x="183.447266"/>
       <use xlink:href="#ArialMT-65" x="233.447266"/>
       <use xlink:href="#ArialMT-72" x="289.0625"/>
       <use xlink:href="#ArialMT-76" x="322.363281"/>
       <use xlink:href="#ArialMT-61" x="372.363281"/>
       <use xlink:href="#ArialMT-74" x="427.978516"/>
       <use xlink:href="#ArialMT-69" x="455.761719"/>
       <use xlink:href="#ArialMT-76" x="477.978516"/>
       <use xlink:href="#ArialMT-65" x="527.978516"/>
       <use xlink:href="#ArialMT-73" x="583.59375"/>
      </g>
     </g>
    </g>
    <g id="xtick_2">
     <g id="line2d_3">
      <path d="M 165.058548 317.96 
L 165.058548 36.72 
" clip-path="url(#pa1f1de6236)" style="fill: none; stroke: #000000; stroke-opacity: 0.11; stroke-width: 0.6; stroke-linecap: square"/>
     </g>
     <g id="line2d_4">
      <g>
       <use xlink:href="#ma71c20d174" x="165.058548" y="317.96" style="stroke: #000000; stroke-width: 0.6"/>
      </g>
     </g>
     <g id="text_2">
      <!-- Labour -->
      <g transform="translate(147.934641 331.833594) scale(0.11 -0.11)">
       <defs>
        <path id="ArialMT-4c" d="M 469 0 
L 469 4581 
L 1075 4581 
L 1075 541 
L 3331 541 
L 3331 0 
L 469 0 
z
" transform="scale(0.015625)"/>
        <path id="ArialMT-62" d="M 941 0 
L 419 0 
L 419 4581 
L 981 4581 
L 981 2947 
Q 1338 3394 1891 3394 
Q 2197 3394 2470 3270 
Q 2744 3147 2920 2923 
Q 3097 2700 3197 2384 
Q 3297 2069 3297 1709 
Q 3297 856 2875 390 
Q 2453 -75 1863 -75 
Q 1275 -75 941 416 
L 941 0 
z
M 934 1684 
Q 934 1088 1097 822 
Q 1363 388 1816 388 
Q 2184 388 2453 708 
Q 2722 1028 2722 1663 
Q 2722 2313 2464 2622 
Q 2206 2931 1841 2931 
Q 1472 2931 1203 2611 
Q 934 2291 934 1684 
z
" transform="scale(0.015625)"/>
        <path id="ArialMT-75" d="M 2597 0 
L 2597 488 
Q 2209 -75 1544 -75 
Q 1250 -75 995 37 
Q 741 150 617 320 
Q 494 491 444 738 
Q 409 903 409 1263 
L 409 3319 
L 972 3319 
L 972 1478 
Q 972 1038 1006 884 
Q 1059 663 1231 536 
Q 1403 409 1656 409 
Q 1909 409 2131 539 
Q 2353 669 2445 892 
Q 2538 1116 2538 1541 
L 2538 3319 
L 3100 3319 
L 3100 0 
L 2597 0 
z
" transform="scale(0.015625)"/>
       </defs>
       <use xlink:href="#ArialMT-4c"/>
       <use xlink:href="#ArialMT-61" x="55.615234"/>
       <use xlink:href="#ArialMT-62" x="111.230469"/>
       <use xlink:href="#ArialMT-6f" x="166.845703"/>
       <use xlink:href="#ArialMT-75" x="222.460938"/>
       <use xlink:href="#ArialMT-72" x="278.076172"/>
      </g>
     </g>
    </g>
    <g id="xtick_3">
     <g id="line2d_5">
      <path d="M 226.016373 317.96 
L 226.016373 36.72 
" clip-path="url(#pa1f1de6236)" style="fill: none; stroke: #000000; stroke-opacity: 0.11; stroke-width: 0.6; stroke-linecap: square"/>
     </g>
     <g id="line2d_6">
      <g>
       <use xlink:href="#ma71c20d174" x="226.016373" y="317.96" style="stroke: #000000; stroke-width: 0.6"/>
      </g>
     </g>
     <g id="text_3">
      <!-- Lib Dems -->
      <g transform="translate(202.787467 331.833594) scale(0.11 -0.11)">
       <defs>
        <path id="ArialMT-20" transform="scale(0.015625)"/>
        <path id="ArialMT-44" d="M 494 0 
L 494 4581 
L 2072 4581 
Q 2606 4581 2888 4516 
Q 3281 4425 3559 4188 
Q 3922 3881 4101 3404 
Q 4281 2928 4281 2316 
Q 4281 1794 4159 1391 
Q 4038 988 3847 723 
Q 3656 459 3429 307 
Q 3203 156 2883 78 
Q 2563 0 2147 0 
L 494 0 
z
M 1100 541 
L 2078 541 
Q 2531 541 2789 625 
Q 3047 709 3200 863 
Q 3416 1078 3536 1442 
Q 3656 1806 3656 2325 
Q 3656 3044 3420 3430 
Q 3184 3816 2847 3947 
Q 2603 4041 2063 4041 
L 1100 4041 
L 1100 541 
z
" transform="scale(0.015625)"/>
        <path id="ArialMT-6d" d="M 422 0 
L 422 3319 
L 925 3319 
L 925 2853 
Q 1081 3097 1340 3245 
Q 1600 3394 1931 3394 
Q 2300 3394 2536 3241 
Q 2772 3088 2869 2813 
Q 3263 3394 3894 3394 
Q 4388 3394 4653 3120 
Q 4919 2847 4919 2278 
L 4919 0 
L 4359 0 
L 4359 2091 
Q 4359 2428 4304 2576 
Q 4250 2725 4106 2815 
Q 3963 2906 3769 2906 
Q 3419 2906 3187 2673 
Q 2956 2441 2956 1928 
L 2956 0 
L 2394 0 
L 2394 2156 
Q 2394 2531 2256 2718 
Q 2119 2906 1806 2906 
Q 1569 2906 1367 2781 
Q 1166 2656 1075 2415 
Q 984 2175 984 1722 
L 984 0 
L 422 0 
z
" transform="scale(0.015625)"/>
       </defs>
       <use xlink:href="#ArialMT-4c"/>
       <use xlink:href="#ArialMT-69" x="55.615234"/>
       <use xlink:href="#ArialMT-62" x="77.832031"/>
       <use xlink:href="#ArialMT-20" x="133.447266"/>
       <use xlink:href="#ArialMT-44" x="161.230469"/>
       <use xlink:href="#ArialMT-65" x="233.447266"/>
       <use xlink:href="#ArialMT-6d" x="289.0625"/>
       <use xlink:href="#ArialMT-73" x="372.363281"/>
      </g>
     </g>
    </g>
    <g id="xtick_4">
     <g id="line2d_7">
      <path d="M 286.974199 317.96 
L 286.974199 36.72 
" clip-path="url(#pa1f1de6236)" style="fill: none; stroke: #000000; stroke-opacity: 0.11; stroke-width: 0.6; stroke-linecap: square"/>
     </g>
     <g id="line2d_8">
      <g>
       <use xlink:href="#ma71c20d174" x="286.974199" y="317.96" style="stroke: #000000; stroke-width: 0.6"/>
      </g>
     </g>
     <g id="text_4">
      <!-- SNP -->
      <g transform="translate(275.664824 331.833594) scale(0.11 -0.11)">
       <defs>
        <path id="ArialMT-53" d="M 288 1472 
L 859 1522 
Q 900 1178 1048 958 
Q 1197 738 1509 602 
Q 1822 466 2213 466 
Q 2559 466 2825 569 
Q 3091 672 3220 851 
Q 3350 1031 3350 1244 
Q 3350 1459 3225 1620 
Q 3100 1781 2813 1891 
Q 2628 1963 1997 2114 
Q 1366 2266 1113 2400 
Q 784 2572 623 2826 
Q 463 3081 463 3397 
Q 463 3744 659 4045 
Q 856 4347 1234 4503 
Q 1613 4659 2075 4659 
Q 2584 4659 2973 4495 
Q 3363 4331 3572 4012 
Q 3781 3694 3797 3291 
L 3216 3247 
Q 3169 3681 2898 3903 
Q 2628 4125 2100 4125 
Q 1550 4125 1298 3923 
Q 1047 3722 1047 3438 
Q 1047 3191 1225 3031 
Q 1400 2872 2139 2705 
Q 2878 2538 3153 2413 
Q 3553 2228 3743 1945 
Q 3934 1663 3934 1294 
Q 3934 928 3725 604 
Q 3516 281 3123 101 
Q 2731 -78 2241 -78 
Q 1619 -78 1198 103 
Q 778 284 539 648 
Q 300 1013 288 1472 
z
" transform="scale(0.015625)"/>
        <path id="ArialMT-4e" d="M 488 0 
L 488 4581 
L 1109 4581 
L 3516 984 
L 3516 4581 
L 4097 4581 
L 4097 0 
L 3475 0 
L 1069 3600 
L 1069 0 
L 488 0 
z
" transform="scale(0.015625)"/>
        <path id="ArialMT-50" d="M 494 0 
L 494 4581 
L 2222 4581 
Q 2678 4581 2919 4538 
Q 3256 4481 3484 4323 
Q 3713 4166 3852 3881 
Q 3991 3597 3991 3256 
Q 3991 2672 3619 2267 
Q 3247 1863 2275 1863 
L 1100 1863 
L 1100 0 
L 494 0 
z
M 1100 2403 
L 2284 2403 
Q 2872 2403 3119 2622 
Q 3366 2841 3366 3238 
Q 3366 3525 3220 3729 
Q 3075 3934 2838 4000 
Q 2684 4041 2272 4041 
L 1100 4041 
L 1100 2403 
z
" transform="scale(0.015625)"/>
       </defs>
       <use xlink:href="#ArialMT-53"/>
       <use xlink:href="#ArialMT-4e" x="66.699219"/>
       <use xlink:href="#ArialMT-50" x="138.916016"/>
      </g>
     </g>
    </g>
    <g id="xtick_5">
     <g id="line2d_9">
      <path d="M 347.932025 317.96 
L 347.932025 36.72 
" clip-path="url(#pa1f1de6236)" style="fill: none; stroke: #000000; stroke-opacity: 0.11; stroke-width: 0.6; stroke-linecap: square"/>
     </g>
     <g id="line2d_10">
      <g>
       <use xlink:href="#ma71c20d174" x="347.932025" y="317.96" style="stroke: #000000; stroke-width: 0.6"/>
      </g>
     </g>
     <g id="text_5">
      <!-- Greens -->
      <g transform="translate(329.897181 331.833594) scale(0.11 -0.11)">
       <defs>
        <path id="ArialMT-47" d="M 2638 1797 
L 2638 2334 
L 4578 2338 
L 4578 638 
Q 4131 281 3656 101 
Q 3181 -78 2681 -78 
Q 2006 -78 1454 211 
Q 903 500 622 1047 
Q 341 1594 341 2269 
Q 341 2938 620 3517 
Q 900 4097 1425 4378 
Q 1950 4659 2634 4659 
Q 3131 4659 3532 4498 
Q 3934 4338 4162 4050 
Q 4391 3763 4509 3300 
L 3963 3150 
Q 3859 3500 3706 3700 
Q 3553 3900 3268 4020 
Q 2984 4141 2638 4141 
Q 2222 4141 1919 4014 
Q 1616 3888 1430 3681 
Q 1244 3475 1141 3228 
Q 966 2803 966 2306 
Q 966 1694 1177 1281 
Q 1388 869 1791 669 
Q 2194 469 2647 469 
Q 3041 469 3416 620 
Q 3791 772 3984 944 
L 3984 1797 
L 2638 1797 
z
" transform="scale(0.015625)"/>
       </defs>
       <use xlink:href="#ArialMT-47"/>
       <use xlink:href="#ArialMT-72" x="77.783203"/>
       <use xlink:href="#ArialMT-65" x="111.083984"/>
       <use xlink:href="#ArialMT-65" x="166.699219"/>
       <use xlink:href="#ArialMT-6e" x="222.314453"/>
       <use xlink:href="#ArialMT-73" x="277.929688"/>
      </g>
     </g>
    </g>
    <g id="xtick_6">
     <g id="line2d_11">
      <path d="M 408.88985 317.96 
L 408.88985 36.72 
" clip-path="url(#pa1f1de6236)" style="fill: none; stroke: #000000; stroke-opacity: 0.11; stroke-width: 0.6; stroke-linecap: square"/>
     </g>
     <g id="line2d_12">
      <g>
       <use xlink:href="#ma71c20d174" x="408.88985" y="317.96" style="stroke: #000000; stroke-width: 0.6"/>
      </g>
     </g>
     <g id="text_6">
      <!-- Brexit -->
      <g transform="translate(394.831335 331.833594) scale(0.11 -0.11)">
       <defs>
        <path id="ArialMT-42" d="M 469 0 
L 469 4581 
L 2188 4581 
Q 2713 4581 3030 4442 
Q 3347 4303 3526 4014 
Q 3706 3725 3706 3409 
Q 3706 3116 3547 2856 
Q 3388 2597 3066 2438 
Q 3481 2316 3704 2022 
Q 3928 1728 3928 1328 
Q 3928 1006 3792 729 
Q 3656 453 3456 303 
Q 3256 153 2954 76 
Q 2653 0 2216 0 
L 469 0 
z
M 1075 2656 
L 2066 2656 
Q 2469 2656 2644 2709 
Q 2875 2778 2992 2937 
Q 3109 3097 3109 3338 
Q 3109 3566 3000 3739 
Q 2891 3913 2687 3977 
Q 2484 4041 1991 4041 
L 1075 4041 
L 1075 2656 
z
M 1075 541 
L 2216 541 
Q 2509 541 2628 563 
Q 2838 600 2978 687 
Q 3119 775 3209 942 
Q 3300 1109 3300 1328 
Q 3300 1584 3169 1773 
Q 3038 1963 2805 2039 
Q 2572 2116 2134 2116 
L 1075 2116 
L 1075 541 
z
" transform="scale(0.015625)"/>
        <path id="ArialMT-78" d="M 47 0 
L 1259 1725 
L 138 3319 
L 841 3319 
L 1350 2541 
Q 1494 2319 1581 2169 
Q 1719 2375 1834 2534 
L 2394 3319 
L 3066 3319 
L 1919 1756 
L 3153 0 
L 2463 0 
L 1781 1031 
L 1600 1309 
L 728 0 
L 47 0 
z
" transform="scale(0.015625)"/>
       </defs>
       <use xlink:href="#ArialMT-42"/>
       <use xlink:href="#ArialMT-72" x="66.699219"/>
       <use xlink:href="#ArialMT-65" x="100"/>
       <use xlink:href="#ArialMT-78" x="155.615234"/>
       <use xlink:href="#ArialMT-69" x="205.615234"/>
       <use xlink:href="#ArialMT-74" x="227.832031"/>
      </g>
     </g>
    </g>
    <g id="xtick_7">
     <g id="line2d_13">
      <path d="M 469.847676 317.96 
L 469.847676 36.72 
" clip-path="url(#pa1f1de6236)" style="fill: none; stroke: #000000; stroke-opacity: 0.11; stroke-width: 0.6; stroke-linecap: square"/>
     </g>
     <g id="line2d_14">
      <g>
       <use xlink:href="#ma71c20d174" x="469.847676" y="317.96" style="stroke: #000000; stroke-width: 0.6"/>
      </g>
     </g>
     <g id="text_7">
      <!-- DUP -->
      <g transform="translate(458.234942 331.833594) scale(0.11 -0.11)">
       <defs>
        <path id="ArialMT-55" d="M 3500 4581 
L 4106 4581 
L 4106 1934 
Q 4106 1244 3950 837 
Q 3794 431 3386 176 
Q 2978 -78 2316 -78 
Q 1672 -78 1262 144 
Q 853 366 678 786 
Q 503 1206 503 1934 
L 503 4581 
L 1109 4581 
L 1109 1938 
Q 1109 1341 1220 1058 
Q 1331 775 1601 622 
Q 1872 469 2263 469 
Q 2931 469 3215 772 
Q 3500 1075 3500 1938 
L 3500 4581 
z
" transform="scale(0.015625)"/>
       </defs>
       <use xlink:href="#ArialMT-44"/>
       <use xlink:href="#ArialMT-55" x="72.216797"/>
       <use xlink:href="#ArialMT-50" x="144.433594"/>
      </g>
     </g>
    </g>
    <g id="xtick_8">
     <g id="line2d_15">
      <path d="M 530.805502 317.96 
L 530.805502 36.72 
" clip-path="url(#pa1f1de6236)" style="fill: none; stroke: #000000; stroke-opacity: 0.11; stroke-width: 0.6; stroke-linecap: square"/>
     </g>
     <g id="line2d_16">
      <g>
       <use xlink:href="#ma71c20d174" x="530.805502" y="317.96" style="stroke: #000000; stroke-width: 0.6"/>
      </g>
     </g>
     <g id="text_8">
      <!-- Sinn Féin -->
      <g transform="translate(507.571439 331.833594) scale(0.11 -0.11)">
       <defs>
        <path id="ArialMT-46" d="M 525 0 
L 525 4581 
L 3616 4581 
L 3616 4041 
L 1131 4041 
L 1131 2622 
L 3281 2622 
L 3281 2081 
L 1131 2081 
L 1131 0 
L 525 0 
z
" transform="scale(0.015625)"/>
        <path id="ArialMT-e9" d="M 2694 1069 
L 3275 997 
Q 3138 488 2766 206 
Q 2394 -75 1816 -75 
Q 1088 -75 661 373 
Q 234 822 234 1631 
Q 234 2469 665 2931 
Q 1097 3394 1784 3394 
Q 2450 3394 2872 2941 
Q 3294 2488 3294 1666 
Q 3294 1616 3291 1516 
L 816 1516 
Q 847 969 1125 678 
Q 1403 388 1819 388 
Q 2128 388 2347 550 
Q 2566 713 2694 1069 
z
M 847 1978 
L 2700 1978 
Q 2663 2397 2488 2606 
Q 2219 2931 1791 2931 
Q 1403 2931 1139 2672 
Q 875 2413 847 1978 
z
M 1454 3731 
L 1869 4606 
L 2607 4606 
L 1919 3731 
L 1454 3731 
z
" transform="scale(0.015625)"/>
       </defs>
       <use xlink:href="#ArialMT-53"/>
       <use xlink:href="#ArialMT-69" x="66.699219"/>
       <use xlink:href="#ArialMT-6e" x="88.916016"/>
       <use xlink:href="#ArialMT-6e" x="144.53125"/>
       <use xlink:href="#ArialMT-20" x="200.146484"/>
       <use xlink:href="#ArialMT-46" x="227.929688"/>
       <use xlink:href="#ArialMT-e9" x="289.013672"/>
       <use xlink:href="#ArialMT-69" x="344.628906"/>
       <use xlink:href="#ArialMT-6e" x="366.845703"/>
      </g>
     </g>
    </g>
    <g id="xtick_9">
     <g id="line2d_17">
      <path d="M 591.763327 317.96 
L 591.763327 36.72 
" clip-path="url(#pa1f1de6236)" style="fill: none; stroke: #000000; stroke-opacity: 0.11; stroke-width: 0.6; stroke-linecap: square"/>
     </g>
     <g id="line2d_18">
      <g>
       <use xlink:href="#ma71c20d174" x="591.763327" y="317.96" style="stroke: #000000; stroke-width: 0.6"/>
      </g>
     </g>
     <g id="text_9">
      <!-- Plaid Cymru -->
      <g transform="translate(561.81239 331.967656) scale(0.11 -0.11)">
       <defs>
        <path id="ArialMT-6c" d="M 409 0 
L 409 4581 
L 972 4581 
L 972 0 
L 409 0 
z
" transform="scale(0.015625)"/>
        <path id="ArialMT-64" d="M 2575 0 
L 2575 419 
Q 2259 -75 1647 -75 
Q 1250 -75 917 144 
Q 584 363 401 755 
Q 219 1147 219 1656 
Q 219 2153 384 2558 
Q 550 2963 881 3178 
Q 1213 3394 1622 3394 
Q 1922 3394 2156 3267 
Q 2391 3141 2538 2938 
L 2538 4581 
L 3097 4581 
L 3097 0 
L 2575 0 
z
M 797 1656 
Q 797 1019 1065 703 
Q 1334 388 1700 388 
Q 2069 388 2326 689 
Q 2584 991 2584 1609 
Q 2584 2291 2321 2609 
Q 2059 2928 1675 2928 
Q 1300 2928 1048 2622 
Q 797 2316 797 1656 
z
" transform="scale(0.015625)"/>
        <path id="ArialMT-79" d="M 397 -1278 
L 334 -750 
Q 519 -800 656 -800 
Q 844 -800 956 -737 
Q 1069 -675 1141 -563 
Q 1194 -478 1313 -144 
Q 1328 -97 1363 -6 
L 103 3319 
L 709 3319 
L 1400 1397 
Q 1534 1031 1641 628 
Q 1738 1016 1872 1384 
L 2581 3319 
L 3144 3319 
L 1881 -56 
Q 1678 -603 1566 -809 
Q 1416 -1088 1222 -1217 
Q 1028 -1347 759 -1347 
Q 597 -1347 397 -1278 
z
" transform="scale(0.015625)"/>
       </defs>
       <use xlink:href="#ArialMT-50"/>
       <use xlink:href="#ArialMT-6c" x="66.699219"/>
       <use xlink:href="#ArialMT-61" x="88.916016"/>
       <use xlink:href="#ArialMT-69" x="144.53125"/>
       <use xlink:href="#ArialMT-64" x="166.748047"/>
       <use xlink:href="#ArialMT-20" x="222.363281"/>
       <use xlink:href="#ArialMT-43" x="250.146484"/>
       <use xlink:href="#ArialMT-79" x="322.363281"/>
       <use xlink:href="#ArialMT-6d" x="372.363281"/>
       <use xlink:href="#ArialMT-72" x="455.664062"/>
       <use xlink:href="#ArialMT-75" x="488.964844"/>
      </g>
     </g>
    </g>
    <g id="xtick_10">
     <g id="line2d_19">
      <path d="M 652.721153 317.96 
L 652.721153 36.72 
" clip-path="url(#pa1f1de6236)" style="fill: none; stroke: #000000; stroke-opacity: 0.11; stroke-width: 0.6; stroke-linecap: square"/>
     </g>
     <g id="line2d_20">
      <g>
       <use xlink:href="#ma71c20d174" x="652.721153" y="317.96" style="stroke: #000000; stroke-width: 0.6"/>
      </g>
     </g>
     <g id="text_10">
      <!-- Alliance -->
      <g transform="translate(633.460841 331.833594) scale(0.11 -0.11)">
       <defs>
        <path id="ArialMT-41" d="M -9 0 
L 1750 4581 
L 2403 4581 
L 4278 0 
L 3588 0 
L 3053 1388 
L 1138 1388 
L 634 0 
L -9 0 
z
M 1313 1881 
L 2866 1881 
L 2388 3150 
Q 2169 3728 2063 4100 
Q 1975 3659 1816 3225 
L 1313 1881 
z
" transform="scale(0.015625)"/>
        <path id="ArialMT-63" d="M 2588 1216 
L 3141 1144 
Q 3050 572 2676 248 
Q 2303 -75 1759 -75 
Q 1078 -75 664 370 
Q 250 816 250 1647 
Q 250 2184 428 2587 
Q 606 2991 970 3192 
Q 1334 3394 1763 3394 
Q 2303 3394 2647 3120 
Q 2991 2847 3088 2344 
L 2541 2259 
Q 2463 2594 2264 2762 
Q 2066 2931 1784 2931 
Q 1359 2931 1093 2626 
Q 828 2322 828 1663 
Q 828 994 1084 691 
Q 1341 388 1753 388 
Q 2084 388 2306 591 
Q 2528 794 2588 1216 
z
" transform="scale(0.015625)"/>
       </defs>
       <use xlink:href="#ArialMT-41"/>
       <use xlink:href="#ArialMT-6c" x="66.699219"/>
       <use xlink:href="#ArialMT-6c" x="88.916016"/>
       <use xlink:href="#ArialMT-69" x="111.132812"/>
       <use xlink:href="#ArialMT-61" x="133.349609"/>
       <use xlink:href="#ArialMT-6e" x="188.964844"/>
       <use xlink:href="#ArialMT-63" x="244.580078"/>
       <use xlink:href="#ArialMT-65" x="294.580078"/>
      </g>
     </g>
    </g>
    <g id="text_11">
     <!-- Party -->
     <g transform="translate(365.574453 346.156406) scale(0.11 -0.11)">
      <use xlink:href="#ArialMT-50"/>
      <use xlink:href="#ArialMT-61" x="66.699219"/>
      <use xlink:href="#ArialMT-72" x="122.314453"/>
      <use xlink:href="#ArialMT-74" x="155.615234"/>
      <use xlink:href="#ArialMT-79" x="183.398438"/>
     </g>
    </g>
   </g>
   <g id="matplotlib.axis_2">
    <g id="ytick_1">
     <g id="line2d_21">
      <path d="M 53.200938 306.845177 
L 703.620937 306.845177 
" clip-path="url(#pa1f1de6236)" style="fill: none; stroke: #000000; stroke-opacity: 0.11; stroke-width: 0.6; stroke-linecap: square"/>
     </g>
     <g id="line2d_22">
      <defs>
       <path id="me20ed46646" d="M 0 0 
L -4 0 
" style="stroke: #000000; stroke-width: 0.6"/>
      </defs>
      <g>
       <use xlink:href="#me20ed46646" x="53.200938" y="306.845177" style="stroke: #000000; stroke-width: 0.6"/>
      </g>
     </g>
     <g id="text_12">
      <!-- -10% -->
      <g transform="translate(21.522813 310.781974) scale(0.11 -0.11)">
       <defs>
        <path id="ArialMT-2d" d="M 203 1375 
L 203 1941 
L 1931 1941 
L 1931 1375 
L 203 1375 
z
" transform="scale(0.015625)"/>
        <path id="ArialMT-31" d="M 2384 0 
L 1822 0 
L 1822 3584 
Q 1619 3391 1289 3197 
Q 959 3003 697 2906 
L 697 3450 
Q 1169 3672 1522 3987 
Q 1875 4303 2022 4600 
L 2384 4600 
L 2384 0 
z
" transform="scale(0.015625)"/>
        <path id="ArialMT-30" d="M 266 2259 
Q 266 3072 433 3567 
Q 600 4063 929 4331 
Q 1259 4600 1759 4600 
Q 2128 4600 2406 4451 
Q 2684 4303 2865 4023 
Q 3047 3744 3150 3342 
Q 3253 2941 3253 2259 
Q 3253 1453 3087 958 
Q 2922 463 2592 192 
Q 2263 -78 1759 -78 
Q 1097 -78 719 397 
Q 266 969 266 2259 
z
M 844 2259 
Q 844 1131 1108 757 
Q 1372 384 1759 384 
Q 2147 384 2411 759 
Q 2675 1134 2675 2259 
Q 2675 3391 2411 3762 
Q 2147 4134 1753 4134 
Q 1366 4134 1134 3806 
Q 844 3388 844 2259 
z
" transform="scale(0.015625)"/>
        <path id="ArialMT-25" d="M 372 3481 
Q 372 3972 619 4315 
Q 866 4659 1334 4659 
Q 1766 4659 2048 4351 
Q 2331 4044 2331 3447 
Q 2331 2866 2045 2552 
Q 1759 2238 1341 2238 
Q 925 2238 648 2547 
Q 372 2856 372 3481 
z
M 1350 4272 
Q 1141 4272 1002 4090 
Q 863 3909 863 3425 
Q 863 2984 1003 2804 
Q 1144 2625 1350 2625 
Q 1563 2625 1702 2806 
Q 1841 2988 1841 3469 
Q 1841 3913 1700 4092 
Q 1559 4272 1350 4272 
z
M 1353 -169 
L 3859 4659 
L 4316 4659 
L 1819 -169 
L 1353 -169 
z
M 3334 1075 
Q 3334 1569 3581 1911 
Q 3828 2253 4300 2253 
Q 4731 2253 5014 1945 
Q 5297 1638 5297 1041 
Q 5297 459 5011 145 
Q 4725 -169 4303 -169 
Q 3888 -169 3611 142 
Q 3334 453 3334 1075 
z
M 4316 1866 
Q 4103 1866 3964 1684 
Q 3825 1503 3825 1019 
Q 3825 581 3965 400 
Q 4106 219 4313 219 
Q 4528 219 4667 400 
Q 4806 581 4806 1063 
Q 4806 1506 4665 1686 
Q 4525 1866 4316 1866 
z
" transform="scale(0.015625)"/>
       </defs>
       <use xlink:href="#ArialMT-2d"/>
       <use xlink:href="#ArialMT-31" x="33.300781"/>
       <use xlink:href="#ArialMT-30" x="88.916016"/>
       <use xlink:href="#ArialMT-25" x="144.53125"/>
      </g>
     </g>
    </g>
    <g id="ytick_2">
     <g id="line2d_23">
      <path d="M 53.200938 249.729027 
L 703.620937 249.729027 
" clip-path="url(#pa1f1de6236)" style="fill: none; stroke: #000000; stroke-opacity: 0.11; stroke-width: 0.6; stroke-linecap: square"/>
     </g>
     <g id="line2d_24">
      <g>
       <use xlink:href="#me20ed46646" x="53.200938" y="249.729027" style="stroke: #000000; stroke-width: 0.6"/>
      </g>
     </g>
     <g id="text_13">
      <!-- -5% -->
      <g transform="translate(27.639844 253.665824) scale(0.11 -0.11)">
       <defs>
        <path id="ArialMT-35" d="M 266 1200 
L 856 1250 
Q 922 819 1161 601 
Q 1400 384 1738 384 
Q 2144 384 2425 690 
Q 2706 997 2706 1503 
Q 2706 1984 2436 2262 
Q 2166 2541 1728 2541 
Q 1456 2541 1237 2417 
Q 1019 2294 894 2097 
L 366 2166 
L 809 4519 
L 3088 4519 
L 3088 3981 
L 1259 3981 
L 1013 2750 
Q 1425 3038 1878 3038 
Q 2478 3038 2890 2622 
Q 3303 2206 3303 1553 
Q 3303 931 2941 478 
Q 2500 -78 1738 -78 
Q 1113 -78 717 272 
Q 322 622 266 1200 
z
" transform="scale(0.015625)"/>
       </defs>
       <use xlink:href="#ArialMT-2d"/>
       <use xlink:href="#ArialMT-35" x="33.300781"/>
       <use xlink:href="#ArialMT-25" x="88.916016"/>
      </g>
     </g>
    </g>
    <g id="ytick_3">
     <g id="line2d_25">
      <path d="M 53.200938 192.612877 
L 703.620937 192.612877 
" clip-path="url(#pa1f1de6236)" style="fill: none; stroke: #000000; stroke-opacity: 0.11; stroke-width: 0.6; stroke-linecap: square"/>
     </g>
     <g id="line2d_26">
      <g>
       <use xlink:href="#me20ed46646" x="53.200938" y="192.612877" style="stroke: #000000; stroke-width: 0.6"/>
      </g>
     </g>
     <g id="text_14">
      <!-- 0% -->
      <g transform="translate(31.3025 196.549674) scale(0.11 -0.11)">
       <use xlink:href="#ArialMT-30"/>
       <use xlink:href="#ArialMT-25" x="55.615234"/>
      </g>
     </g>
    </g>
    <g id="ytick_4">
     <g id="line2d_27">
      <path d="M 53.200938 135.496727 
L 703.620937 135.496727 
" clip-path="url(#pa1f1de6236)" style="fill: none; stroke: #000000; stroke-opacity: 0.11; stroke-width: 0.6; stroke-linecap: square"/>
     </g>
     <g id="line2d_28">
      <g>
       <use xlink:href="#me20ed46646" x="53.200938" y="135.496727" style="stroke: #000000; stroke-width: 0.6"/>
      </g>
     </g>
     <g id="text_15">
      <!-- 5% -->
      <g transform="translate(31.3025 139.433523) scale(0.11 -0.11)">
       <use xlink:href="#ArialMT-35"/>
       <use xlink:href="#ArialMT-25" x="55.615234"/>
      </g>
     </g>
    </g>
    <g id="ytick_5">
     <g id="line2d_29">
      <path d="M 53.200938 78.380576 
L 703.620937 78.380576 
" clip-path="url(#pa1f1de6236)" style="fill: none; stroke: #000000; stroke-opacity: 0.11; stroke-width: 0.6; stroke-linecap: square"/>
     </g>
     <g id="line2d_30">
      <g>
       <use xlink:href="#me20ed46646" x="53.200938" y="78.380576" style="stroke: #000000; stroke-width: 0.6"/>
      </g>
     </g>
     <g id="text_16">
      <!-- 10% -->
      <g transform="translate(25.185469 82.317373) scale(0.11 -0.11)">
       <use xlink:href="#ArialMT-31"/>
       <use xlink:href="#ArialMT-30" x="55.615234"/>
       <use xlink:href="#ArialMT-25" x="111.230469"/>
      </g>
     </g>
    </g>
    <g id="ytick_6">
     <g id="line2d_31">
      <defs>
       <path id="ma7a45a6bfc" d="M 0 0 
L -2 0 
" style="stroke: #000000; stroke-width: 0.48"/>
      </defs>
      <g>
       <use xlink:href="#ma7a45a6bfc" x="53.200938" y="295.421947" style="stroke: #000000; stroke-width: 0.48"/>
      </g>
     </g>
    </g>
    <g id="ytick_7">
     <g id="line2d_32">
      <g>
       <use xlink:href="#ma7a45a6bfc" x="53.200938" y="283.998717" style="stroke: #000000; stroke-width: 0.48"/>
      </g>
     </g>
    </g>
    <g id="ytick_8">
     <g id="line2d_33">
      <g>
       <use xlink:href="#ma7a45a6bfc" x="53.200938" y="272.575487" style="stroke: #000000; stroke-width: 0.48"/>
      </g>
     </g>
    </g>
    <g id="ytick_9">
     <g id="line2d_34">
      <g>
       <use xlink:href="#ma7a45a6bfc" x="53.200938" y="261.152257" style="stroke: #000000; stroke-width: 0.48"/>
      </g>
     </g>
    </g>
    <g id="ytick_10">
     <g id="line2d_35">
      <g>
       <use xlink:href="#ma7a45a6bfc" x="53.200938" y="238.305797" style="stroke: #000000; stroke-width: 0.48"/>
      </g>
     </g>
    </g>
    <g id="ytick_11">
     <g id="line2d_36">
      <g>
       <use xlink:href="#ma7a45a6bfc" x="53.200938" y="226.882567" style="stroke: #000000; stroke-width: 0.48"/>
      </g>
     </g>
    </g>
    <g id="ytick_12">
     <g id="line2d_37">
      <g>
       <use xlink:href="#ma7a45a6bfc" x="53.200938" y="215.459337" style="stroke: #000000; stroke-width: 0.48"/>
      </g>
     </g>
    </g>
    <g id="ytick_13">
     <g id="line2d_38">
      <g>
       <use xlink:href="#ma7a45a6bfc" x="53.200938" y="204.036107" style="stroke: #000000; stroke-width: 0.48"/>
      </g>
     </g>
    </g>
    <g id="ytick_14">
     <g id="line2d_39">
      <g>
       <use xlink:href="#ma7a45a6bfc" x="53.200938" y="181.189647" style="stroke: #000000; stroke-width: 0.48"/>
      </g>
     </g>
    </g>
    <g id="ytick_15">
     <g id="line2d_40">
      <g>
       <use xlink:href="#ma7a45a6bfc" x="53.200938" y="169.766417" style="stroke: #000000; stroke-width: 0.48"/>
      </g>
     </g>
    </g>
    <g id="ytick_16">
     <g id="line2d_41">
      <g>
       <use xlink:href="#ma7a45a6bfc" x="53.200938" y="158.343187" style="stroke: #000000; stroke-width: 0.48"/>
      </g>
     </g>
    </g>
    <g id="ytick_17">
     <g id="line2d_42">
      <g>
       <use xlink:href="#ma7a45a6bfc" x="53.200938" y="146.919957" style="stroke: #000000; stroke-width: 0.48"/>
      </g>
     </g>
    </g>
    <g id="ytick_18">
     <g id="line2d_43">
      <g>
       <use xlink:href="#ma7a45a6bfc" x="53.200938" y="124.073496" style="stroke: #000000; stroke-width: 0.48"/>
      </g>
     </g>
    </g>
    <g id="ytick_19">
     <g id="line2d_44">
      <g>
       <use xlink:href="#ma7a45a6bfc" x="53.200938" y="112.650266" style="stroke: #000000; stroke-width: 0.48"/>
      </g>
     </g>
    </g>
    <g id="ytick_20">
     <g id="line2d_45">
      <g>
       <use xlink:href="#ma7a45a6bfc" x="53.200938" y="101.227036" style="stroke: #000000; stroke-width: 0.48"/>
      </g>
     </g>
    </g>
    <g id="ytick_21">
     <g id="line2d_46">
      <g>
       <use xlink:href="#ma7a45a6bfc" x="53.200938" y="89.803806" style="stroke: #000000; stroke-width: 0.48"/>
      </g>
     </g>
    </g>
    <g id="ytick_22">
     <g id="line2d_47">
      <g>
       <use xlink:href="#ma7a45a6bfc" x="53.200938" y="66.957346" style="stroke: #000000; stroke-width: 0.48"/>
      </g>
     </g>
    </g>
    <g id="ytick_23">
     <g id="line2d_48">
      <g>
       <use xlink:href="#ma7a45a6bfc" x="53.200938" y="55.534116" style="stroke: #000000; stroke-width: 0.48"/>
      </g>
     </g>
    </g>
    <g id="ytick_24">
     <g id="line2d_49">
      <g>
       <use xlink:href="#ma7a45a6bfc" x="53.200938" y="44.110886" style="stroke: #000000; stroke-width: 0.48"/>
      </g>
     </g>
    </g>
    <g id="text_17">
     <!-- Deviation from Proportionality (%) -->
     <g transform="translate(15.207656 259.558984) rotate(-90) scale(0.11 -0.11)">
      <defs>
       <path id="ArialMT-66" d="M 556 0 
L 556 2881 
L 59 2881 
L 59 3319 
L 556 3319 
L 556 3672 
Q 556 4006 616 4169 
Q 697 4388 901 4523 
Q 1106 4659 1475 4659 
Q 1713 4659 2000 4603 
L 1916 4113 
Q 1741 4144 1584 4144 
Q 1328 4144 1222 4034 
Q 1116 3925 1116 3625 
L 1116 3319 
L 1763 3319 
L 1763 2881 
L 1116 2881 
L 1116 0 
L 556 0 
z
" transform="scale(0.015625)"/>
       <path id="ArialMT-70" d="M 422 -1272 
L 422 3319 
L 934 3319 
L 934 2888 
Q 1116 3141 1344 3267 
Q 1572 3394 1897 3394 
Q 2322 3394 2647 3175 
Q 2972 2956 3137 2557 
Q 3303 2159 3303 1684 
Q 3303 1175 3120 767 
Q 2938 359 2589 142 
Q 2241 -75 1856 -75 
Q 1575 -75 1351 44 
Q 1128 163 984 344 
L 984 -1272 
L 422 -1272 
z
M 931 1641 
Q 931 1000 1190 694 
Q 1450 388 1819 388 
Q 2194 388 2461 705 
Q 2728 1022 2728 1688 
Q 2728 2322 2467 2637 
Q 2206 2953 1844 2953 
Q 1484 2953 1207 2617 
Q 931 2281 931 1641 
z
" transform="scale(0.015625)"/>
       <path id="ArialMT-28" d="M 1497 -1347 
Q 1031 -759 709 28 
Q 388 816 388 1659 
Q 388 2403 628 3084 
Q 909 3875 1497 4659 
L 1900 4659 
Q 1522 4009 1400 3731 
Q 1209 3300 1100 2831 
Q 966 2247 966 1656 
Q 966 153 1900 -1347 
L 1497 -1347 
z
" transform="scale(0.015625)"/>
       <path id="ArialMT-29" d="M 791 -1347 
L 388 -1347 
Q 1322 153 1322 1656 
Q 1322 2244 1188 2822 
Q 1081 3291 891 3722 
Q 769 4003 388 4659 
L 791 4659 
Q 1378 3875 1659 3084 
Q 1900 2403 1900 1659 
Q 1900 816 1576 28 
Q 1253 -759 791 -1347 
z
" transform="scale(0.015625)"/>
      </defs>
      <use xlink:href="#ArialMT-44"/>
      <use xlink:href="#ArialMT-65" x="72.216797"/>
      <use xlink:href="#ArialMT-76" x="127.832031"/>
      <use xlink:href="#ArialMT-69" x="177.832031"/>
      <use xlink:href="#ArialMT-61" x="200.048828"/>
      <use xlink:href="#ArialMT-74" x="255.664062"/>
      <use xlink:href="#ArialMT-69" x="283.447266"/>
      <use xlink:href="#ArialMT-6f" x="305.664062"/>
      <use xlink:href="#ArialMT-6e" x="361.279297"/>
      <use xlink:href="#ArialMT-20" x="416.894531"/>
      <use xlink:href="#ArialMT-66" x="444.677734"/>
      <use xlink:href="#ArialMT-72" x="472.460938"/>
      <use xlink:href="#ArialMT-6f" x="505.761719"/>
      <use xlink:href="#ArialMT-6d" x="561.376953"/>
      <use xlink:href="#ArialMT-20" x="644.677734"/>
      <use xlink:href="#ArialMT-50" x="672.460938"/>
      <use xlink:href="#ArialMT-72" x="739.160156"/>
      <use xlink:href="#ArialMT-6f" x="772.460938"/>
      <use xlink:href="#ArialMT-70" x="828.076172"/>
      <use xlink:href="#ArialMT-6f" x="883.691406"/>
      <use xlink:href="#ArialMT-72" x="939.306641"/>
      <use xlink:href="#ArialMT-74" x="972.607422"/>
      <use xlink:href="#ArialMT-69" x="1000.390625"/>
      <use xlink:href="#ArialMT-6f" x="1022.607422"/>
      <use xlink:href="#ArialMT-6e" x="1078.222656"/>
      <use xlink:href="#ArialMT-61" x="1133.837891"/>
      <use xlink:href="#ArialMT-6c" x="1189.453125"/>
      <use xlink:href="#ArialMT-69" x="1211.669922"/>
      <use xlink:href="#ArialMT-74" x="1233.886719"/>
      <use xlink:href="#ArialMT-79" x="1261.669922"/>
      <use xlink:href="#ArialMT-20" x="1311.669922"/>
      <use xlink:href="#ArialMT-28" x="1339.453125"/>
      <use xlink:href="#ArialMT-25" x="1372.753906"/>
      <use xlink:href="#ArialMT-29" x="1461.669922"/>
     </g>
    </g>
   </g>
   <g id="patch_33">
    <path d="M 53.200938 317.96 
L 53.200938 36.72 
" style="fill: none; stroke: #000000; stroke-width: 0.6; stroke-linejoin: miter; stroke-linecap: square"/>
   </g>
   <g id="patch_34">
    <path d="M 703.620937 317.96 
L 703.620937 36.72 
" style="fill: none; stroke: #000000; stroke-width: 0.6; stroke-linejoin: miter; stroke-linecap: square"/>
   </g>
   <g id="patch_35">
    <path d="M 53.200938 317.96 
L 703.620938 317.96 
" style="fill: none; stroke: #000000; stroke-width: 0.6; stroke-linejoin: miter; stroke-linecap: square"/>
   </g>
   <g id="patch_36">
    <path d="M 53.200938 36.72 
L 703.620938 36.72 
" style="fill: none; stroke: #000000; stroke-width: 0.6; stroke-linejoin: miter; stroke-linecap: square"/>
   </g>
   <g id="legend_1">
    <g id="patch_37">
     <path d="M 504.694531 89.688438 
L 701.420937 89.688438 
Q 703.620937 89.688438 703.620937 87.488438 
L 703.620937 38.92 
Q 703.620937 36.72 701.420937 36.72 
L 504.694531 36.72 
Q 502.494531 36.72 502.494531 38.92 
L 502.494531 87.488438 
Q 502.494531 89.688438 504.694531 89.688438 
z
" style="fill: #ffffff; opacity: 0.8; stroke: #000000; stroke-width: 0.6; stroke-linejoin: miter"/>
    </g>
    <g id="patch_38">
     <path d="M 507.994531 50.227656 
L 529.994531 50.227656 
L 529.994531 42.527656 
L 507.994531 42.527656 
z
" style="fill: #ff0000"/>
    </g>
    <g id="text_18">
     <!-- First Past the Post (FPTP) -->
     <g transform="translate(535.494531 50.227656) scale(0.11 -0.11)">
      <defs>
       <path id="ArialMT-68" d="M 422 0 
L 422 4581 
L 984 4581 
L 984 2938 
Q 1378 3394 1978 3394 
Q 2347 3394 2619 3248 
Q 2891 3103 3008 2847 
Q 3125 2591 3125 2103 
L 3125 0 
L 2563 0 
L 2563 2103 
Q 2563 2525 2380 2717 
Q 2197 2909 1863 2909 
Q 1613 2909 1392 2779 
Q 1172 2650 1078 2428 
Q 984 2206 984 1816 
L 984 0 
L 422 0 
z
" transform="scale(0.015625)"/>
       <path id="ArialMT-54" d="M 1659 0 
L 1659 4041 
L 150 4041 
L 150 4581 
L 3781 4581 
L 3781 4041 
L 2266 4041 
L 2266 0 
L 1659 0 
z
" transform="scale(0.015625)"/>
      </defs>
      <use xlink:href="#ArialMT-46"/>
      <use xlink:href="#ArialMT-69" x="61.083984"/>
      <use xlink:href="#ArialMT-72" x="83.300781"/>
      <use xlink:href="#ArialMT-73" x="116.601562"/>
      <use xlink:href="#ArialMT-74" x="166.601562"/>
      <use xlink:href="#ArialMT-20" x="194.384766"/>
      <use xlink:href="#ArialMT-50" x="222.167969"/>
      <use xlink:href="#ArialMT-61" x="288.867188"/>
      <use xlink:href="#ArialMT-73" x="344.482422"/>
      <use xlink:href="#ArialMT-74" x="394.482422"/>
      <use xlink:href="#ArialMT-20" x="422.265625"/>
      <use xlink:href="#ArialMT-74" x="450.048828"/>
      <use xlink:href="#ArialMT-68" x="477.832031"/>
      <use xlink:href="#ArialMT-65" x="533.447266"/>
      <use xlink:href="#ArialMT-20" x="589.0625"/>
      <use xlink:href="#ArialMT-50" x="616.845703"/>
      <use xlink:href="#ArialMT-6f" x="683.544922"/>
      <use xlink:href="#ArialMT-73" x="739.160156"/>
      <use xlink:href="#ArialMT-74" x="789.160156"/>
      <use xlink:href="#ArialMT-20" x="816.943359"/>
      <use xlink:href="#ArialMT-28" x="844.726562"/>
      <use xlink:href="#ArialMT-46" x="878.027344"/>
      <use xlink:href="#ArialMT-50" x="939.111328"/>
      <use xlink:href="#ArialMT-54" x="1005.810547"/>
      <use xlink:href="#ArialMT-50" x="1066.894531"/>
      <use xlink:href="#ArialMT-29" x="1133.59375"/>
     </g>
    </g>
    <g id="patch_39">
     <path d="M 507.994531 66.050469 
L 529.994531 66.050469 
L 529.994531 58.350469 
L 507.994531 58.350469 
z
" style="fill: #0000ff"/>
    </g>
    <g id="text_19">
     <!-- Proportional Representation (PR) -->
     <g transform="translate(535.494531 66.050469) scale(0.11 -0.11)">
      <defs>
       <path id="ArialMT-52" d="M 503 0 
L 503 4581 
L 2534 4581 
Q 3147 4581 3465 4457 
Q 3784 4334 3975 4021 
Q 4166 3709 4166 3331 
Q 4166 2844 3850 2509 
Q 3534 2175 2875 2084 
Q 3116 1969 3241 1856 
Q 3506 1613 3744 1247 
L 4541 0 
L 3778 0 
L 3172 953 
Q 2906 1366 2734 1584 
Q 2563 1803 2427 1890 
Q 2291 1978 2150 2013 
Q 2047 2034 1813 2034 
L 1109 2034 
L 1109 0 
L 503 0 
z
M 1109 2559 
L 2413 2559 
Q 2828 2559 3062 2645 
Q 3297 2731 3419 2920 
Q 3541 3109 3541 3331 
Q 3541 3656 3305 3865 
Q 3069 4075 2559 4075 
L 1109 4075 
L 1109 2559 
z
" transform="scale(0.015625)"/>
      </defs>
      <use xlink:href="#ArialMT-50"/>
      <use xlink:href="#ArialMT-72" x="66.699219"/>
      <use xlink:href="#ArialMT-6f" x="100"/>
      <use xlink:href="#ArialMT-70" x="155.615234"/>
      <use xlink:href="#ArialMT-6f" x="211.230469"/>
      <use xlink:href="#ArialMT-72" x="266.845703"/>
      <use xlink:href="#ArialMT-74" x="300.146484"/>
      <use xlink:href="#ArialMT-69" x="327.929688"/>
      <use xlink:href="#ArialMT-6f" x="350.146484"/>
      <use xlink:href="#ArialMT-6e" x="405.761719"/>
      <use xlink:href="#ArialMT-61" x="461.376953"/>
      <use xlink:href="#ArialMT-6c" x="516.992188"/>
      <use xlink:href="#ArialMT-20" x="539.208984"/>
      <use xlink:href="#ArialMT-52" x="566.992188"/>
      <use xlink:href="#ArialMT-65" x="639.208984"/>
      <use xlink:href="#ArialMT-70" x="694.824219"/>
      <use xlink:href="#ArialMT-72" x="750.439453"/>
      <use xlink:href="#ArialMT-65" x="783.740234"/>
      <use xlink:href="#ArialMT-73" x="839.355469"/>
      <use xlink:href="#ArialMT-65" x="889.355469"/>
      <use xlink:href="#ArialMT-6e" x="944.970703"/>
      <use xlink:href="#ArialMT-74" x="1000.585938"/>
      <use xlink:href="#ArialMT-61" x="1028.369141"/>
      <use xlink:href="#ArialMT-74" x="1083.984375"/>
      <use xlink:href="#ArialMT-69" x="1111.767578"/>
      <use xlink:href="#ArialMT-6f" x="1133.984375"/>
      <use xlink:href="#ArialMT-6e" x="1189.599609"/>
      <use xlink:href="#ArialMT-20" x="1245.214844"/>
      <use xlink:href="#ArialMT-28" x="1272.998047"/>
      <use xlink:href="#ArialMT-50" x="1306.298828"/>
      <use xlink:href="#ArialMT-52" x="1372.998047"/>
      <use xlink:href="#ArialMT-29" x="1445.214844"/>
     </g>
    </g>
    <g id="patch_40">
     <path d="M 507.994531 81.873281 
L 529.994531 81.873281 
L 529.994531 74.173281 
L 507.994531 74.173281 
z
" style="fill: #008000"/>
    </g>
    <g id="text_20">
     <!-- Proportional Past the Post (PPP) -->
     <g transform="translate(535.494531 81.873281) scale(0.11 -0.11)">
      <use xlink:href="#ArialMT-50"/>
      <use xlink:href="#ArialMT-72" x="66.699219"/>
      <use xlink:href="#ArialMT-6f" x="100"/>
      <use xlink:href="#ArialMT-70" x="155.615234"/>
      <use xlink:href="#ArialMT-6f" x="211.230469"/>
      <use xlink:href="#ArialMT-72" x="266.845703"/>
      <use xlink:href="#ArialMT-74" x="300.146484"/>
      <use xlink:href="#ArialMT-69" x="327.929688"/>
      <use xlink:href="#ArialMT-6f" x="350.146484"/>
      <use xlink:href="#ArialMT-6e" x="405.761719"/>
      <use xlink:href="#ArialMT-61" x="461.376953"/>
      <use xlink:href="#ArialMT-6c" x="516.992188"/>
      <use xlink:href="#ArialMT-20" x="539.208984"/>
      <use xlink:href="#ArialMT-50" x="566.992188"/>
      <use xlink:href="#ArialMT-61" x="633.691406"/>
      <use xlink:href="#ArialMT-73" x="689.306641"/>
      <use xlink:href="#ArialMT-74" x="739.306641"/>
      <use xlink:href="#ArialMT-20" x="767.089844"/>
      <use xlink:href="#ArialMT-74" x="794.873047"/>
      <use xlink:href="#ArialMT-68" x="822.65625"/>
      <use xlink:href="#ArialMT-65" x="878.271484"/>
      <use xlink:href="#ArialMT-20" x="933.886719"/>
      <use xlink:href="#ArialMT-50" x="961.669922"/>
      <use xlink:href="#ArialMT-6f" x="1028.369141"/>
      <use xlink:href="#ArialMT-73" x="1083.984375"/>
      <use xlink:href="#ArialMT-74" x="1133.984375"/>
      <use xlink:href="#ArialMT-20" x="1161.767578"/>
      <use xlink:href="#ArialMT-28" x="1189.550781"/>
      <use xlink:href="#ArialMT-50" x="1222.851562"/>
      <use xlink:href="#ArialMT-50" x="1289.550781"/>
      <use xlink:href="#ArialMT-50" x="1356.25"/>
      <use xlink:href="#ArialMT-29" x="1422.949219"/>
     </g>
    </g>
   </g>
  </g>
  <g id="text_21">
   <!-- 2019 General Election: Deviation from Proportionality (by party) -->
   <g transform="translate(156.002531 16.809188) scale(0.132 -0.132)">
    <defs>
     <path id="Arial-BoldMT-32" d="M 3238 816 
L 3238 0 
L 159 0 
Q 209 463 459 877 
Q 709 1291 1447 1975 
Q 2041 2528 2175 2725 
Q 2356 2997 2356 3263 
Q 2356 3556 2198 3714 
Q 2041 3872 1763 3872 
Q 1488 3872 1325 3706 
Q 1163 3541 1138 3156 
L 263 3244 
Q 341 3969 753 4284 
Q 1166 4600 1784 4600 
Q 2463 4600 2850 4234 
Q 3238 3869 3238 3325 
Q 3238 3016 3127 2736 
Q 3016 2456 2775 2150 
Q 2616 1947 2200 1565 
Q 1784 1184 1673 1059 
Q 1563 934 1494 816 
L 3238 816 
z
" transform="scale(0.015625)"/>
     <path id="Arial-BoldMT-30" d="M 1756 4600 
Q 2422 4600 2797 4125 
Q 3244 3563 3244 2259 
Q 3244 959 2794 391 
Q 2422 -78 1756 -78 
Q 1088 -78 678 436 
Q 269 950 269 2269 
Q 269 3563 719 4131 
Q 1091 4600 1756 4600 
z
M 1756 3872 
Q 1597 3872 1472 3770 
Q 1347 3669 1278 3406 
Q 1188 3066 1188 2259 
Q 1188 1453 1269 1151 
Q 1350 850 1473 750 
Q 1597 650 1756 650 
Q 1916 650 2041 751 
Q 2166 853 2234 1116 
Q 2325 1453 2325 2259 
Q 2325 3066 2244 3367 
Q 2163 3669 2039 3770 
Q 1916 3872 1756 3872 
z
" transform="scale(0.015625)"/>
     <path id="Arial-BoldMT-31" d="M 2519 0 
L 1641 0 
L 1641 3309 
Q 1159 2859 506 2644 
L 506 3441 
Q 850 3553 1253 3867 
Q 1656 4181 1806 4600 
L 2519 4600 
L 2519 0 
z
" transform="scale(0.015625)"/>
     <path id="Arial-BoldMT-39" d="M 291 1059 
L 1141 1153 
Q 1172 894 1303 769 
Q 1434 644 1650 644 
Q 1922 644 2112 894 
Q 2303 1144 2356 1931 
Q 2025 1547 1528 1547 
Q 988 1547 595 1964 
Q 203 2381 203 3050 
Q 203 3747 617 4173 
Q 1031 4600 1672 4600 
Q 2369 4600 2816 4061 
Q 3263 3522 3263 2288 
Q 3263 1031 2797 475 
Q 2331 -81 1584 -81 
Q 1047 -81 715 205 
Q 384 491 291 1059 
z
M 2278 2978 
Q 2278 3403 2083 3637 
Q 1888 3872 1631 3872 
Q 1388 3872 1227 3680 
Q 1066 3488 1066 3050 
Q 1066 2606 1241 2398 
Q 1416 2191 1678 2191 
Q 1931 2191 2104 2391 
Q 2278 2591 2278 2978 
z
" transform="scale(0.015625)"/>
     <path id="Arial-BoldMT-20" transform="scale(0.015625)"/>
     <path id="Arial-BoldMT-47" d="M 2597 1684 
L 2597 2456 
L 4591 2456 
L 4591 631 
Q 4300 350 3748 136 
Q 3197 -78 2631 -78 
Q 1913 -78 1378 223 
Q 844 525 575 1086 
Q 306 1647 306 2306 
Q 306 3022 606 3578 
Q 906 4134 1484 4431 
Q 1925 4659 2581 4659 
Q 3434 4659 3914 4301 
Q 4394 3944 4531 3313 
L 3613 3141 
Q 3516 3478 3248 3673 
Q 2981 3869 2581 3869 
Q 1975 3869 1617 3484 
Q 1259 3100 1259 2344 
Q 1259 1528 1621 1120 
Q 1984 713 2572 713 
Q 2863 713 3155 827 
Q 3447 941 3656 1103 
L 3656 1684 
L 2597 1684 
z
" transform="scale(0.015625)"/>
     <path id="Arial-BoldMT-65" d="M 2381 1056 
L 3256 909 
Q 3088 428 2723 176 
Q 2359 -75 1813 -75 
Q 947 -75 531 491 
Q 203 944 203 1634 
Q 203 2459 634 2926 
Q 1066 3394 1725 3394 
Q 2466 3394 2894 2905 
Q 3322 2416 3303 1406 
L 1103 1406 
Q 1113 1016 1316 798 
Q 1519 581 1822 581 
Q 2028 581 2168 693 
Q 2309 806 2381 1056 
z
M 2431 1944 
Q 2422 2325 2234 2523 
Q 2047 2722 1778 2722 
Q 1491 2722 1303 2513 
Q 1116 2303 1119 1944 
L 2431 1944 
z
" transform="scale(0.015625)"/>
     <path id="Arial-BoldMT-6e" d="M 3478 0 
L 2600 0 
L 2600 1694 
Q 2600 2231 2544 2389 
Q 2488 2547 2361 2634 
Q 2234 2722 2056 2722 
Q 1828 2722 1647 2597 
Q 1466 2472 1398 2265 
Q 1331 2059 1331 1503 
L 1331 0 
L 453 0 
L 453 3319 
L 1269 3319 
L 1269 2831 
Q 1703 3394 2363 3394 
Q 2653 3394 2893 3289 
Q 3134 3184 3257 3021 
Q 3381 2859 3429 2653 
Q 3478 2447 3478 2063 
L 3478 0 
z
" transform="scale(0.015625)"/>
     <path id="Arial-BoldMT-72" d="M 1300 0 
L 422 0 
L 422 3319 
L 1238 3319 
L 1238 2847 
Q 1447 3181 1614 3287 
Q 1781 3394 1994 3394 
Q 2294 3394 2572 3228 
L 2300 2463 
Q 2078 2606 1888 2606 
Q 1703 2606 1575 2504 
Q 1447 2403 1373 2137 
Q 1300 1872 1300 1025 
L 1300 0 
z
" transform="scale(0.015625)"/>
     <path id="Arial-BoldMT-61" d="M 1116 2306 
L 319 2450 
Q 453 2931 781 3162 
Q 1109 3394 1756 3394 
Q 2344 3394 2631 3255 
Q 2919 3116 3036 2902 
Q 3153 2688 3153 2116 
L 3144 1091 
Q 3144 653 3186 445 
Q 3228 238 3344 0 
L 2475 0 
Q 2441 88 2391 259 
Q 2369 338 2359 363 
Q 2134 144 1878 34 
Q 1622 -75 1331 -75 
Q 819 -75 523 203 
Q 228 481 228 906 
Q 228 1188 362 1408 
Q 497 1628 739 1745 
Q 981 1863 1438 1950 
Q 2053 2066 2291 2166 
L 2291 2253 
Q 2291 2506 2166 2614 
Q 2041 2722 1694 2722 
Q 1459 2722 1328 2630 
Q 1197 2538 1116 2306 
z
M 2291 1594 
Q 2122 1538 1756 1459 
Q 1391 1381 1278 1306 
Q 1106 1184 1106 997 
Q 1106 813 1243 678 
Q 1381 544 1594 544 
Q 1831 544 2047 700 
Q 2206 819 2256 991 
Q 2291 1103 2291 1419 
L 2291 1594 
z
" transform="scale(0.015625)"/>
     <path id="Arial-BoldMT-6c" d="M 459 0 
L 459 4581 
L 1338 4581 
L 1338 0 
L 459 0 
z
" transform="scale(0.015625)"/>
     <path id="Arial-BoldMT-45" d="M 466 0 
L 466 4581 
L 3863 4581 
L 3863 3806 
L 1391 3806 
L 1391 2791 
L 3691 2791 
L 3691 2019 
L 1391 2019 
L 1391 772 
L 3950 772 
L 3950 0 
L 466 0 
z
" transform="scale(0.015625)"/>
     <path id="Arial-BoldMT-63" d="M 3353 2338 
L 2488 2181 
Q 2444 2441 2289 2572 
Q 2134 2703 1888 2703 
Q 1559 2703 1364 2476 
Q 1169 2250 1169 1719 
Q 1169 1128 1367 884 
Q 1566 641 1900 641 
Q 2150 641 2309 783 
Q 2469 925 2534 1272 
L 3397 1125 
Q 3263 531 2881 228 
Q 2500 -75 1859 -75 
Q 1131 -75 698 384 
Q 266 844 266 1656 
Q 266 2478 700 2936 
Q 1134 3394 1875 3394 
Q 2481 3394 2839 3133 
Q 3197 2872 3353 2338 
z
" transform="scale(0.015625)"/>
     <path id="Arial-BoldMT-74" d="M 1981 3319 
L 1981 2619 
L 1381 2619 
L 1381 1281 
Q 1381 875 1398 808 
Q 1416 741 1477 697 
Q 1538 653 1625 653 
Q 1747 653 1978 738 
L 2053 56 
Q 1747 -75 1359 -75 
Q 1122 -75 931 4 
Q 741 84 652 211 
Q 563 338 528 553 
Q 500 706 500 1172 
L 500 2619 
L 97 2619 
L 97 3319 
L 500 3319 
L 500 3978 
L 1381 4491 
L 1381 3319 
L 1981 3319 
z
" transform="scale(0.015625)"/>
     <path id="Arial-BoldMT-69" d="M 459 3769 
L 459 4581 
L 1338 4581 
L 1338 3769 
L 459 3769 
z
M 459 0 
L 459 3319 
L 1338 3319 
L 1338 0 
L 459 0 
z
" transform="scale(0.015625)"/>
     <path id="Arial-BoldMT-6f" d="M 256 1706 
Q 256 2144 472 2553 
Q 688 2963 1083 3178 
Q 1478 3394 1966 3394 
Q 2719 3394 3200 2905 
Q 3681 2416 3681 1669 
Q 3681 916 3195 420 
Q 2709 -75 1972 -75 
Q 1516 -75 1102 131 
Q 688 338 472 736 
Q 256 1134 256 1706 
z
M 1156 1659 
Q 1156 1166 1390 903 
Q 1625 641 1969 641 
Q 2313 641 2545 903 
Q 2778 1166 2778 1666 
Q 2778 2153 2545 2415 
Q 2313 2678 1969 2678 
Q 1625 2678 1390 2415 
Q 1156 2153 1156 1659 
z
" transform="scale(0.015625)"/>
     <path id="Arial-BoldMT-3a" d="M 628 2441 
L 628 3319 
L 1506 3319 
L 1506 2441 
L 628 2441 
z
M 628 0 
L 628 878 
L 1506 878 
L 1506 0 
L 628 0 
z
" transform="scale(0.015625)"/>
     <path id="Arial-BoldMT-44" d="M 463 4581 
L 2153 4581 
Q 2725 4581 3025 4494 
Q 3428 4375 3715 4072 
Q 4003 3769 4153 3330 
Q 4303 2891 4303 2247 
Q 4303 1681 4163 1272 
Q 3991 772 3672 463 
Q 3431 228 3022 97 
Q 2716 0 2203 0 
L 463 0 
L 463 4581 
z
M 1388 3806 
L 1388 772 
L 2078 772 
Q 2466 772 2638 816 
Q 2863 872 3011 1006 
Q 3159 1141 3253 1448 
Q 3347 1756 3347 2288 
Q 3347 2819 3253 3103 
Q 3159 3388 2990 3547 
Q 2822 3706 2563 3763 
Q 2369 3806 1803 3806 
L 1388 3806 
z
" transform="scale(0.015625)"/>
     <path id="Arial-BoldMT-76" d="M 1372 0 
L 34 3319 
L 956 3319 
L 1581 1625 
L 1763 1059 
Q 1834 1275 1853 1344 
Q 1897 1484 1947 1625 
L 2578 3319 
L 3481 3319 
L 2163 0 
L 1372 0 
z
" transform="scale(0.015625)"/>
     <path id="Arial-BoldMT-66" d="M 75 3319 
L 563 3319 
L 563 3569 
Q 563 3988 652 4194 
Q 741 4400 980 4529 
Q 1219 4659 1584 4659 
Q 1959 4659 2319 4547 
L 2200 3934 
Q 1991 3984 1797 3984 
Q 1606 3984 1523 3895 
Q 1441 3806 1441 3553 
L 1441 3319 
L 2097 3319 
L 2097 2628 
L 1441 2628 
L 1441 0 
L 563 0 
L 563 2628 
L 75 2628 
L 75 3319 
z
" transform="scale(0.015625)"/>
     <path id="Arial-BoldMT-6d" d="M 394 3319 
L 1203 3319 
L 1203 2866 
Q 1638 3394 2238 3394 
Q 2556 3394 2790 3262 
Q 3025 3131 3175 2866 
Q 3394 3131 3647 3262 
Q 3900 3394 4188 3394 
Q 4553 3394 4806 3245 
Q 5059 3097 5184 2809 
Q 5275 2597 5275 2122 
L 5275 0 
L 4397 0 
L 4397 1897 
Q 4397 2391 4306 2534 
Q 4184 2722 3931 2722 
Q 3747 2722 3584 2609 
Q 3422 2497 3350 2280 
Q 3278 2063 3278 1594 
L 3278 0 
L 2400 0 
L 2400 1819 
Q 2400 2303 2353 2443 
Q 2306 2584 2207 2653 
Q 2109 2722 1941 2722 
Q 1738 2722 1575 2612 
Q 1413 2503 1342 2297 
Q 1272 2091 1272 1613 
L 1272 0 
L 394 0 
L 394 3319 
z
" transform="scale(0.015625)"/>
     <path id="Arial-BoldMT-50" d="M 466 0 
L 466 4581 
L 1950 4581 
Q 2794 4581 3050 4513 
Q 3444 4409 3709 4064 
Q 3975 3719 3975 3172 
Q 3975 2750 3822 2462 
Q 3669 2175 3433 2011 
Q 3197 1847 2953 1794 
Q 2622 1728 1994 1728 
L 1391 1728 
L 1391 0 
L 466 0 
z
M 1391 3806 
L 1391 2506 
L 1897 2506 
Q 2444 2506 2628 2578 
Q 2813 2650 2917 2803 
Q 3022 2956 3022 3159 
Q 3022 3409 2875 3571 
Q 2728 3734 2503 3775 
Q 2338 3806 1838 3806 
L 1391 3806 
z
" transform="scale(0.015625)"/>
     <path id="Arial-BoldMT-70" d="M 434 3319 
L 1253 3319 
L 1253 2831 
Q 1413 3081 1684 3237 
Q 1956 3394 2288 3394 
Q 2866 3394 3269 2941 
Q 3672 2488 3672 1678 
Q 3672 847 3265 386 
Q 2859 -75 2281 -75 
Q 2006 -75 1782 34 
Q 1559 144 1313 409 
L 1313 -1263 
L 434 -1263 
L 434 3319 
z
M 1303 1716 
Q 1303 1156 1525 889 
Q 1747 622 2066 622 
Q 2372 622 2575 867 
Q 2778 1113 2778 1672 
Q 2778 2194 2568 2447 
Q 2359 2700 2050 2700 
Q 1728 2700 1515 2451 
Q 1303 2203 1303 1716 
z
" transform="scale(0.015625)"/>
     <path id="Arial-BoldMT-79" d="M 44 3319 
L 978 3319 
L 1772 963 
L 2547 3319 
L 3456 3319 
L 2284 125 
L 2075 -453 
Q 1959 -744 1854 -897 
Q 1750 -1050 1614 -1145 
Q 1478 -1241 1279 -1294 
Q 1081 -1347 831 -1347 
Q 578 -1347 334 -1294 
L 256 -606 
Q 463 -647 628 -647 
Q 934 -647 1081 -467 
Q 1228 -288 1306 -9 
L 44 3319 
z
" transform="scale(0.015625)"/>
     <path id="Arial-BoldMT-28" d="M 1916 -1347 
L 1313 -1347 
Q 834 -625 584 153 
Q 334 931 334 1659 
Q 334 2563 644 3369 
Q 913 4069 1325 4659 
L 1925 4659 
Q 1497 3713 1336 3048 
Q 1175 2384 1175 1641 
Q 1175 1128 1270 590 
Q 1366 53 1531 -431 
Q 1641 -750 1916 -1347 
z
" transform="scale(0.015625)"/>
     <path id="Arial-BoldMT-62" d="M 422 0 
L 422 4581 
L 1300 4581 
L 1300 2931 
Q 1706 3394 2263 3394 
Q 2869 3394 3266 2955 
Q 3663 2516 3663 1694 
Q 3663 844 3258 384 
Q 2853 -75 2275 -75 
Q 1991 -75 1714 67 
Q 1438 209 1238 488 
L 1238 0 
L 422 0 
z
M 1294 1731 
Q 1294 1216 1456 969 
Q 1684 619 2063 619 
Q 2353 619 2558 867 
Q 2763 1116 2763 1650 
Q 2763 2219 2556 2470 
Q 2350 2722 2028 2722 
Q 1713 2722 1503 2476 
Q 1294 2231 1294 1731 
z
" transform="scale(0.015625)"/>
     <path id="Arial-BoldMT-29" d="M 216 -1347 
Q 475 -791 581 -494 
Q 688 -197 778 190 
Q 869 578 912 926 
Q 956 1275 956 1641 
Q 956 2384 797 3048 
Q 638 3713 209 4659 
L 806 4659 
Q 1278 3988 1539 3234 
Q 1800 2481 1800 1706 
Q 1800 1053 1594 306 
Q 1359 -531 822 -1347 
L 216 -1347 
z
" transform="scale(0.015625)"/>
    </defs>
    <use xlink:href="#Arial-BoldMT-32"/>
    <use xlink:href="#Arial-BoldMT-30" x="55.615234"/>
    <use xlink:href="#Arial-BoldMT-31" x="111.230469"/>
    <use xlink:href="#Arial-BoldMT-39" x="166.845703"/>
    <use xlink:href="#Arial-BoldMT-20" x="222.460938"/>
    <use xlink:href="#Arial-BoldMT-47" x="250.244141"/>
    <use xlink:href="#Arial-BoldMT-65" x="328.027344"/>
    <use xlink:href="#Arial-BoldMT-6e" x="383.642578"/>
    <use xlink:href="#Arial-BoldMT-65" x="444.726562"/>
    <use xlink:href="#Arial-BoldMT-72" x="500.341797"/>
    <use xlink:href="#Arial-BoldMT-61" x="539.257812"/>
    <use xlink:href="#Arial-BoldMT-6c" x="594.873047"/>
    <use xlink:href="#Arial-BoldMT-20" x="622.65625"/>
    <use xlink:href="#Arial-BoldMT-45" x="650.439453"/>
    <use xlink:href="#Arial-BoldMT-6c" x="717.138672"/>
    <use xlink:href="#Arial-BoldMT-65" x="744.921875"/>
    <use xlink:href="#Arial-BoldMT-63" x="800.537109"/>
    <use xlink:href="#Arial-BoldMT-74" x="856.152344"/>
    <use xlink:href="#Arial-BoldMT-69" x="889.453125"/>
    <use xlink:href="#Arial-BoldMT-6f" x="917.236328"/>
    <use xlink:href="#Arial-BoldMT-6e" x="978.320312"/>
    <use xlink:href="#Arial-BoldMT-3a" x="1039.404297"/>
    <use xlink:href="#Arial-BoldMT-20" x="1072.705078"/>
    <use xlink:href="#Arial-BoldMT-44" x="1100.488281"/>
    <use xlink:href="#Arial-BoldMT-65" x="1172.705078"/>
    <use xlink:href="#Arial-BoldMT-76" x="1228.320312"/>
    <use xlink:href="#Arial-BoldMT-69" x="1283.935547"/>
    <use xlink:href="#Arial-BoldMT-61" x="1311.71875"/>
    <use xlink:href="#Arial-BoldMT-74" x="1367.333984"/>
    <use xlink:href="#Arial-BoldMT-69" x="1400.634766"/>
    <use xlink:href="#Arial-BoldMT-6f" x="1428.417969"/>
    <use xlink:href="#Arial-BoldMT-6e" x="1489.501953"/>
    <use xlink:href="#Arial-BoldMT-20" x="1550.585938"/>
    <use xlink:href="#Arial-BoldMT-66" x="1578.369141"/>
    <use xlink:href="#Arial-BoldMT-72" x="1611.669922"/>
    <use xlink:href="#Arial-BoldMT-6f" x="1650.585938"/>
    <use xlink:href="#Arial-BoldMT-6d" x="1711.669922"/>
    <use xlink:href="#Arial-BoldMT-20" x="1800.585938"/>
    <use xlink:href="#Arial-BoldMT-50" x="1828.369141"/>
    <use xlink:href="#Arial-BoldMT-72" x="1895.068359"/>
    <use xlink:href="#Arial-BoldMT-6f" x="1933.984375"/>
    <use xlink:href="#Arial-BoldMT-70" x="1995.068359"/>
    <use xlink:href="#Arial-BoldMT-6f" x="2056.152344"/>
    <use xlink:href="#Arial-BoldMT-72" x="2117.236328"/>
    <use xlink:href="#Arial-BoldMT-74" x="2156.152344"/>
    <use xlink:href="#Arial-BoldMT-69" x="2189.453125"/>
    <use xlink:href="#Arial-BoldMT-6f" x="2217.236328"/>
    <use xlink:href="#Arial-BoldMT-6e" x="2278.320312"/>
    <use xlink:href="#Arial-BoldMT-61" x="2339.404297"/>
    <use xlink:href="#Arial-BoldMT-6c" x="2395.019531"/>
    <use xlink:href="#Arial-BoldMT-69" x="2422.802734"/>
    <use xlink:href="#Arial-BoldMT-74" x="2450.585938"/>
    <use xlink:href="#Arial-BoldMT-79" x="2483.886719"/>
    <use xlink:href="#Arial-BoldMT-20" x="2539.501953"/>
    <use xlink:href="#Arial-BoldMT-28" x="2567.285156"/>
    <use xlink:href="#Arial-BoldMT-62" x="2600.585938"/>
    <use xlink:href="#Arial-BoldMT-79" x="2661.669922"/>
    <use xlink:href="#Arial-BoldMT-20" x="2717.285156"/>
    <use xlink:href="#Arial-BoldMT-70" x="2745.068359"/>
    <use xlink:href="#Arial-BoldMT-61" x="2806.152344"/>
    <use xlink:href="#Arial-BoldMT-72" x="2861.767578"/>
    <use xlink:href="#Arial-BoldMT-74" x="2900.683594"/>
    <use xlink:href="#Arial-BoldMT-79" x="2933.984375"/>
    <use xlink:href="#Arial-BoldMT-29" x="2989.599609"/>
   </g>
  </g>
 </g>
 <defs>
  <clipPath id="pa1f1de6236">
   <rect x="53.200938" y="36.72" width="650.42" height="281.24"/>
  </clipPath>
 </defs>
</svg>
